<?xml version="1.0" encoding="utf-8"?>
<svg width="68px" height="68px" viewBox="0 0 68 68" version="1.1" xmlns:xlink="http://www.w3.org/1999/xlink" xmlns="http://www.w3.org/2000/svg">
  <g id="Group" transform="translate(2 2)">
    <path d="M22.4698 63.8262C22.4676 63.8251 7.87815 54.8695 7.87815 54.8695C7.87815 54.8695 1.41164 47.476 1.14354 45.353C0.875436 43.2299 0.223852 33.9297 0.0211003 31.9179C-0.181651 29.906 1.14354 18.4828 1.14354 18.4828L12.3679 5.60747C12.3679 5.60747 24.4331 -0.267681 24.7147 0.00950895C24.9963 0.286699 39.3064 1.1291 39.3064 1.1291L53.3368 8.40645C53.3368 8.40645 60.8738 18.5315 61.1939 19.0426C61.5139 19.5536 63.9999 33.5973 63.9999 33.5973C63.9999 33.5973 64.0182 41.1112 63.4387 42.554C62.8593 43.9968 60.6432 48.864 58.3878 51.5107C56.1323 54.1575 50.1799 59.7148 49.4083 59.9076C48.6366 60.1005 42.4075 63.1733 40.4288 63.2664C38.4501 63.3596 32.6476 63.7484 30.9842 63.9374C29.3207 64.1264 22.4721 63.8274 22.4698 63.8262Z" id="New-shape" fill="none" fill-rule="evenodd" stroke="#CCCCCC" stroke-width="4" />
    <path d="M26.9596 50.3911C27.0144 48.7895 27.1931 35.2448 26.9596 34.157C26.7261 33.0692 26.9596 27.4395 26.9596 27.4395L29.2044 24.0807C29.2044 24.0807 33.4549 23.0789 33.6942 23.5209C33.9335 23.963 36.5685 26.9859 36.5003 27.4395C36.4321 27.8931 36.2802 33.4542 36.5003 33.5972C36.7203 33.7402 36.1187 40.5974 35.939 41.4344C35.7594 42.2714 36.0226 46.6823 35.939 47.5921C35.8555 48.502 36.9529 50.5242 36.5003 50.9509C36.0477 51.3776 34.2554 53.1901 34.2554 53.1901L30.8881 53.1901C30.8881 53.1901 26.9048 51.9927 26.9596 50.3911Z" id="New-shape-2" fill="none" fill-rule="evenodd" stroke="#CCCCCC" stroke-width="4" />
    <path d="M29.2636 17.008C29.2636 17.0068 27.0188 12.5296 27.0188 12.5296C27.0188 12.5296 27.1254 9.54545 27.58 9.17082C28.0345 8.7962 30.8502 8.16897 31.5085 8.05123C32.1668 7.9335 34.8758 9.17082 34.8758 9.17082C34.8758 9.17082 36.5316 12.2371 36.5595 12.5296C36.5874 12.8221 35.9982 15.3286 35.9982 15.3286L32.6309 17.008C32.6309 17.008 29.2636 17.0091 29.2636 17.008Z" id="New-shape-3" fill="none" fill-rule="evenodd" stroke="#CCCCCC" stroke-width="4" />
  </g>
</svg>