<?xml version="1.0" encoding="utf-8"?>
<svg width="68px" height="68px" viewBox="0 0 68 68" version="1.1" xmlns:xlink="http://www.w3.org/1999/xlink" xmlns="http://www.w3.org/2000/svg">
  <g id="Group" transform="translate(2 2)">
    <path d="M15.0875 59.2994C15.0868 59.2987 5.29859 50.9831 5.02917 50.2599C4.75975 49.5367 1.79613 43.5706 1.79613 41.9435C1.79613 40.3164 0 31.1864 0 30.3729C0 29.5593 1.79613 19.887 1.79613 19.887C1.79613 19.887 7.72337 9.76271 8.26221 9.40113C8.80106 9.03955 16.5244 4.15819 16.8837 3.9774C17.2429 3.79661 26.2236 0.723164 26.2236 0.723164C26.2236 0.723164 36.1921 -5.45534e-08 36.6411 0C37.0902 5.45534e-08 42.3888 2.16949 42.3888 2.16949C42.3888 2.16949 50.8306 5.87571 51.7286 6.50848C52.6267 7.14124 56.4884 11.661 57.8355 14.1017C59.1826 16.5424 62.8647 23.0509 62.8647 24.226C62.8647 25.4011 64.3016 30.6441 63.9424 32.5424C63.5831 34.4407 63.7627 40.226 63.2239 40.4972C62.6851 40.7684 60.1705 47.4576 59.6316 48.452C59.0928 49.4463 54.1534 54.9605 53.1656 55.322C52.1777 55.6836 45.532 58.7571 44.5441 60.0226C43.5562 61.2881 40.2334 62.2825 38.7965 62.9153C37.3596 63.548 31.9712 64 31.9712 64C31.9712 64 25.9541 63.548 25.1459 63.6384C24.3376 63.7288 18.1409 62.1921 17.2429 61.4689C16.3448 60.7458 15.0882 59.3002 15.0875 59.2994Z" id="New-shape" fill="none" fill-rule="evenodd" stroke="#CCCCCC" stroke-width="4" stroke-linecap="round" stroke-linejoin="round" />
    <path d="M10.0583 33.6271L10.0583 42.5335L9.33989 44.2462L10.0583 46.6441L11.4953 44.2462L10.0583 42.5335" id="New-shape-2" fill="none" fill-rule="evenodd" stroke="#CCCCCC" stroke-width="4" stroke-linecap="round" stroke-linejoin="round" />
    <path d="M15.4467 37.2429L12.9322 35.0734L7.18453 32.1808L5.74763 28.9266C5.74763 28.9266 16.4802 24.8938 16.5244 24.5876C16.5687 24.2813 28.3789 18.4407 28.3789 18.4407L31.2527 17.7175L39.8742 20.6102L50.651 25.3107L56.3986 28.9266C56.3986 28.9266 51.3321 33.9934 51.0102 33.9887C50.6883 33.984 49.5733 35.0734 49.5733 35.0734L47.4179 37.2429L47.0587 39.4124C47.0587 39.4124 44.4278 40.823 43.4664 40.8588C42.5051 40.8945 37.0004 41.9435 37.0004 41.9435L28.3789 41.5819L19.039 40.8588L15.806 38.6893C15.806 38.6893 18.1557 37.3607 18.6798 37.2429C19.2039 37.1251 23.1266 36.0987 23.3497 36.1582C23.5729 36.2177 28.2418 35.7943 29.0974 35.7966C29.953 35.7989 34.4915 36.6124 35.2042 36.5198C35.917 36.4271 41.9257 36.7074 42.3888 36.8814C42.8518 37.0553 45.5484 37.8745 45.6218 37.6045C45.6951 37.3346 47.7771 35.435 47.7771 35.435L47.4179 33.2655C47.4179 33.2655 46.4749 30.601 45.981 30.3729C45.4871 30.1448 41.9201 29.1044 41.3111 28.9266C40.702 28.7487 36.0865 29.0346 35.2042 28.9266C34.3219 28.8185 29.2321 29.1044 28.3789 28.9266C27.5258 28.7487 23.9338 28.7554 22.9905 28.9266C22.0472 29.0977 17.9613 30.3729 17.9613 30.3729C17.9613 30.3729 16.7576 32.0529 16.5244 32.1808C16.2913 32.3087 15.5038 33.435 15.4467 33.9887C15.3897 34.5424 15.4467 35.435 15.4467 35.435C15.4467 35.435 15.4467 36.3605 15.4467 36.8125C15.4467 37.2645 15.4467 37.2429 15.4467 37.2429L15.8036 38.6327" id="New-shape-3" fill="none" fill-rule="evenodd" stroke="#CCCCCC" stroke-width="4" stroke-linecap="round" stroke-linejoin="round" />
  </g>
</svg>