<svg width="65" height="64" viewBox="0 0 65 64" fill="none" xmlns="http://www.w3.org/2000/svg">
<g clip-path="url(#clip0)">
<path d="M0.5 30.6667C0.5 16.2133 0.5 8.98667 4.98 4.48C9.48667 0 16.7133 0 31.1667 0H33.8333C48.2867 0 55.5133 0 60.02 4.48C64.5 8.98667 64.5 16.2133 64.5 30.6667V33.3333C64.5 47.7867 64.5 55.0133 60.02 59.52C55.5133 64 48.2867 64 33.8333 64H31.1667C16.7133 64 9.48667 64 4.98 59.52C0.5 55.0133 0.5 47.7867 0.5 33.3333V30.6667Z" fill="#2787F5"/>
<path fill-rule="evenodd" clip-rule="evenodd" d="M17.8333 20H13.1667C11.8333 20 11.5667 20.64 11.5667 21.3333C11.5667 22.56 13.1666 28.6933 18.9267 36.8C22.7933 42.32 28.2333 45.3334 33.1667 45.3334C36.1267 45.3334 36.5 44.6667 36.5 43.52V39.3334C36.5 38 36.7666 37.7334 37.7267 37.7334C38.42 37.7334 39.5933 38.08 42.3666 40.7467C45.54 43.92 46.0467 45.3334 47.8333 45.3334H52.5C53.8333 45.3334 54.5 44.6667 54.1 43.36C53.7 42.0267 52.18 40.16 50.18 37.8934C49.1133 36.5867 47.46 35.2267 46.98 34.5333C46.2867 33.6267 46.4467 33.2267 46.98 32.4534C46.98 32.4534 52.66 24.4533 53.2467 21.7067C53.54 20.72 53.2467 20 51.8333 20H47.1667C46.7302 19.9739 46.297 20.0897 45.9318 20.33C45.5665 20.5703 45.2888 20.9222 45.14 21.3333C45.14 21.3333 42.74 27.0933 39.4067 30.8533C38.3133 31.9467 37.8067 32.2933 37.22 32.2933C36.9533 32.2933 36.5 31.9467 36.5 30.96V21.7067C36.5 20.5333 36.1533 20 35.1667 20H27.8333C27.0867 20 26.6333 20.5333 26.6333 21.0667C26.6333 22.1867 28.34 22.4533 28.5 25.6V32.48C28.5 34 28.2333 34.2667 27.6467 34.2667C26.0467 34.2667 22.2067 28.4534 19.9133 21.8133C19.4867 20.5333 19.0333 20 17.8333 20Z" fill="white"/>
</g>
<defs>
<clipPath id="clip0">
<rect width="64" height="64" fill="white" transform="translate(0.5)"/>
</clipPath>
</defs>
</svg>
