<svg width="64" height="64" viewBox="0 0 64 64" fill="none" xmlns="http://www.w3.org/2000/svg">
<g clip-path="url(#clip0)">
<path d="M46.8532 0H18.1671C8.42884 0 0.5 7.92884 0.5 17.6671V46.3329C0.5 56.0712 8.42884 64 18.1671 64H46.8329C56.5712 64 64.5 56.0712 64.5 46.3329V17.6671C64.5 7.92884 56.5915 0 46.8532 0ZM58.8278 46.3532C58.8278 52.9606 53.4606 58.3278 46.8532 58.3278H18.1671C11.5597 58.3278 6.1925 52.9606 6.1925 46.3532V17.6671C6.1925 11.0597 11.5597 5.6925 18.1671 5.6925H46.8329C53.4403 5.6925 58.8075 11.0597 58.8075 17.6671L58.8278 46.3532Z" fill="url(#paint0_linear)"/>
<path d="M33 16C23.9057 16 16.5 23.1813 16.5 32C16.5 40.8187 23.9057 48 33 48C42.0943 48 49.5 40.8187 49.5 32C49.5 23.1813 42.1147 16 33 16ZM33 42.4957C27.0388 42.4957 22.1763 37.7805 22.1763 32C22.1763 26.2195 27.0388 21.5043 33 21.5043C38.9612 21.5043 43.8237 26.2195 43.8237 32C43.8237 37.8002 38.9815 42.4957 33 42.4957Z" fill="url(#paint1_linear)"/>
<path d="M49.5 11C48.4463 11 47.4122 11.4293 46.6707 12.1707C45.9293 12.9122 45.5 13.9463 45.5 15C45.5 16.0537 45.9293 17.0878 46.6707 17.8293C47.4122 18.5707 48.4463 19 49.5 19C50.5537 19 51.5878 18.5707 52.3293 17.8293C53.0707 17.0878 53.5 16.0537 53.5 15C53.5 13.9463 53.0707 12.9122 52.3293 12.1707C51.5878 11.4293 50.5537 11 49.5 11Z" fill="url(#paint2_linear)"/>
</g>
<defs>
<linearGradient id="paint0_linear" x1="32.5063" y1="2.6584" x2="32.5063" y2="61.3906" gradientUnits="userSpaceOnUse">
<stop stop-color="#EA8928"/>
<stop offset="1" stop-color="#CF2B8F"/>
</linearGradient>
<linearGradient id="paint1_linear" x1="33.0063" y1="3.52671" x2="33.0063" y2="60.5208" gradientUnits="userSpaceOnUse">
<stop stop-color="#EA8928"/>
<stop offset="1" stop-color="#CF2B8F"/>
</linearGradient>
<linearGradient id="paint2_linear" x1="49.5084" y1="3.288" x2="49.5084" y2="59.6566" gradientUnits="userSpaceOnUse">
<stop stop-color="#EA8928"/>
<stop offset="1" stop-color="#CF2B8F"/>
</linearGradient>
<clipPath id="clip0">
<rect width="64" height="64" fill="white" transform="translate(0.5)"/>
</clipPath>
</defs>
</svg>
