<?xml version="1.0" encoding="utf-8"?>
<svg width="68.00482px" height="68px" viewBox="0 0 68.00482 68" version="1.1" xmlns:xlink="http://www.w3.org/1999/xlink" xmlns="http://www.w3.org/2000/svg">
  <path d="M24.5494 66C24.5496 65.9995 24.5494 61.1941 24.5494 61.1941L21.7225 61.431C21.7225 61.431 18.8191 61.1085 18.3165 60.8556C17.8139 60.6027 16.2555 60.0585 15.8302 59.2988C15.4048 58.539 13.662 55.312 13.4119 55.0682C13.1619 54.8244 11.7796 52.7778 11.2662 52.1914C10.7528 51.605 8.7092 50.2667 8.60953 49.45C8.50986 48.6333 8.43839 46.9236 8.84796 46.9117C9.25751 46.8998 11.6749 46.8102 11.6749 46.8102C11.6749 46.8102 15.1888 48.4028 15.4214 48.807C15.6541 49.2112 17.8056 51.5231 17.9759 51.853C18.1462 52.1829 19.8392 53.7833 20.1557 53.8498C20.4723 53.9164 23.0508 54.0867 23.0508 54.0867C23.0508 54.0867 24.8219 53.8031 24.89 53.2406C24.9582 52.6782 25.6393 50.8715 25.6393 50.8715C25.6393 50.8715 23.9064 49.7351 22.8124 49.7208C21.7184 49.7064 19.5086 49.7401 18.8274 49.1454C18.1462 48.5508 16.3087 47.4188 15.8983 46.9117C15.4879 46.4045 14.2086 43.2056 14.0591 42.7827C13.9095 42.3597 12.911 40.4518 12.6626 39.4659C12.4143 38.4799 12.0108 34.7411 12.005 34.423C11.9992 34.1049 11.8277 31.0315 11.9133 30.4633C11.9989 29.895 13.9145 25.3258 14.1613 24.8451C14.408 24.3643 14.9787 21.6298 14.9787 21.6298C14.9787 21.6298 14.5658 17.5399 14.57 17.1962C14.5741 16.8525 15.6599 14.624 15.6599 14.624L18.2144 14.1163C18.2144 14.1163 22.2068 14.867 22.7102 15.1994C23.2137 15.5317 25.7573 16.2687 26.3546 16.5193C26.9519 16.7699 33.7796 16.5193 33.7796 16.5193C33.7796 16.5193 36.0051 15.9731 36.5043 15.8763C37.0036 15.7794 39.8422 16.3501 39.8422 16.3501L43.146 16.8578C43.146 16.8578 46.6632 15.1361 47.2331 14.9625C47.803 14.7888 50.4688 13.8794 50.4688 13.8794C50.4688 13.8794 51.6991 13.4125 52.0355 13.8117C52.372 14.211 52.7906 15.5257 52.9551 16.5193C53.1196 17.5129 53.1844 19.9338 53.1936 20.5806C53.2027 21.2275 53.7692 24.3121 53.9429 24.7097C54.1165 25.1072 55.3542 27.4027 55.4415 27.8234C55.5287 28.244 55.5787 30.5384 55.6576 30.9591C55.7366 31.3798 56.0139 34.5051 56.0205 35.3369C56.0272 36.1686 55.7066 39.3126 55.5555 39.8043C55.4043 40.296 54.791 42.8622 54.4538 43.1888C54.1165 43.5154 52.9618 44.9143 52.3761 45.6594C51.7905 46.4045 50.0601 47.6563 50.0601 47.6563C50.0601 47.6563 47.5222 49.6229 46.7903 49.7885C46.0585 49.9541 45.3291 50.4516 44.4062 50.5331C43.4833 50.6145 41.6473 50.8715 41.6473 50.8715C41.6473 50.8715 43.7557 54.6071 43.8272 55.1697C43.8986 55.7324 44.0664 58.7609 44.0656 59.4341C44.0648 60.1074 43.6643 61.7672 43.6569 62.1756C43.6494 62.5839 43.7557 64.1793 43.8272 64.5785C43.8986 64.9777 44.4743 65.8984 44.4743 65.8984C44.4743 65.8984 49.1438 64.0555 49.7195 63.7324C50.2952 63.4093 55.1133 59.4344 55.6118 59.028C56.1103 58.6216 61.5598 52.3568 61.7426 52.0222C61.9253 51.6876 64.0785 45.8058 64.3311 45.321C64.5836 44.8361 66.0041 39.8575 66 39.1274C65.9958 38.3974 65.9892 34.9195 66 34.2538C66.0108 33.5882 66 27.8234 66 27.8234C66 27.8234 65.0172 24.3914 64.8419 23.9651C64.6667 23.5388 62.5284 19.6795 62.1853 19.0915C61.8422 18.5034 59.3716 13.9359 58.7793 13.3718C58.187 12.8076 52.3761 7.68588 52.3761 7.68588C52.3761 7.68588 47.1899 5.14786 46.7903 4.80908C46.3908 4.47034 37.5484 2.54236 37.5484 2.54236L31.4295 2C31.4295 2 25.5192 3.57892 25.0931 3.8403C24.6669 4.10168 18.5549 6.0275 18.5549 6.0275L11.8595 9.73856C11.8595 9.73856 8.76239 14.1076 8.67764 14.8609C8.59293 15.6143 4.86298 20.2422 4.86298 20.2422L3.48627 27.2929C3.48627 27.2929 2.12491 33.4121 2.03604 34.2538C1.94714 35.0955 2.04922 40.1233 2.06085 40.6852C2.07251 41.247 3.06601 45.8483 3.15076 46.4159C3.2355 46.9835 5.63055 50.2122 5.78259 50.7023C5.93463 51.1923 6.98962 53.0849 7.41745 53.7483C7.84528 54.4117 9.64459 56.7995 10.0741 57.1327C10.5036 57.4659 12.3827 58.6833 12.7307 58.8588C13.0788 59.0343 16.8353 63.0253 17.1585 63.2586C17.4817 63.4919 21.2116 64.6462 21.2116 64.6462C21.2116 64.6462 24.5493 66.0005 24.5494 66Z" id="New-shape" fill="none" fill-rule="evenodd" stroke="#CCCCCC" stroke-width="4" />
</svg>