<?xml version="1.0" encoding="utf-8"?>
<svg width="68px" height="67.99999px" viewBox="0 0 68 67.99999" version="1.1" xmlns:xlink="http://www.w3.org/1999/xlink" xmlns="http://www.w3.org/2000/svg">
  <g id="Group" transform="translate(2 2)">
    <path d="M23.92 55.3903L23.8327 47.8788L23.5707 38.7325L23.658 29.0117L23.7454 22.5607L30.9068 22.2956L34.4001 22.2956L34.4875 27.156L37.7188 23.7979L42.2602 22.384L47.8496 22.8258L53.2643 25.4769L55.7097 31.4861L56.4957 39.2627C56.4957 39.2627 56.6893 45.1887 56.4957 46.1556C56.302 47.1224 56.864 52.7002 56.7577 53.3136C56.6513 53.927 56.2337 55.4344 56.2337 55.4344L45.6662 55.4344C45.6662 55.4344 45.6852 49.6956 45.6662 49.2485C45.6472 48.8015 45.5789 43.4161 45.5789 43.4161C45.5789 43.4161 45.4232 39.6214 45.4042 38.9976C45.3852 38.3738 45.0549 34.4023 45.0549 34.4023C45.0549 34.4023 42.8905 32.5518 42.3475 32.3698C41.8045 32.1879 38.5238 31.5797 38.0682 31.7512C37.6125 31.9228 35.3608 35.0209 35.3608 35.0209L34.7495 38.5557L34.6621 43.5928L34.7495 48.895L34.7495 53.1368L34.7495 55.8763L23.92 55.3903Z" id="New-shape" fill="none" fill-rule="evenodd" stroke="#CCCCCC" stroke-width="4" />
    <path d="M18.5053 55.3903C18.5053 55.3903 18.3497 47.8398 18.3307 47.4369C18.3116 47.0341 18.2433 39.5278 18.2433 39.5278L18.3307 32.1047L17.9813 26.449L18.2433 22.384C18.2433 22.384 13.5463 22.3008 13.0033 22.2956C12.4603 22.2904 8.81122 22.5607 8.81122 22.5607L7.50121 22.0305L7.15188 29.1001L7.50121 36.0813C7.50121 36.0813 7.08355 41.0353 7.06454 41.6487C7.04554 42.2621 7.34555 46.5142 7.32654 46.9509C7.30754 47.3875 7.23921 52.3415 7.23921 52.3415L7.15188 55.6112L13.9639 55.6112L18.5053 55.3903Z" id="New-shape-2" fill="none" fill-rule="evenodd" stroke="#CCCCCC" stroke-width="4" />
    <path d="M16.322 15.4469L16.322 15.4469L16.322 15.4469L18.418 10.8517L16.9333 7.80288L14.2259 5.85873L9.07322 6.38896C9.07322 6.38896 7.95688 8.24993 7.76321 8.95169C7.56954 9.65345 7.34554 13.1987 7.41387 13.6353C7.4822 14.072 10.6452 16.2864 10.6452 16.2864L14.2259 17.0818C14.2259 17.0818 15.0186 16.4635 15.5426 16.0548C16.0666 15.6461 16.322 15.4469 16.322 15.4469Z" id="New-shape-3" fill="none" fill-rule="evenodd" stroke="#CCCCCC" stroke-width="4" />
    <path d="M5.48611 64L35.9316 63.9075L57.8286 63.7225L61.3486 63.4449L63.4514 61.5022L64 58.7268L63.5886 42.9996C63.5886 42.9996 63.5998 29.8672 63.7257 29.354C63.8516 28.8409 63.4561 16.3736 63.5886 15.3384C63.721 14.3032 63.8741 4.69054 63.8629 4.14434C63.8516 3.59814 62.6743 1.36896 62.6743 1.36896L59.7943 0.443836L49.463 0.166298C49.463 0.166298 37.1118 0.316013 36.5716 0.305067C36.0314 0.294121 22.4572 -0.106903 21.6689 0.0275292C20.8805 0.161961 7.81752 0.305067 7.81752 0.305067L3.65755 0.305067L0.64043 2.52537C0.64043 2.52537 0.501441 4.76983 0.503288 6.36464C0.505135 7.95945 0.863625 16.5725 0.61731 17.751C0.370994 18.9295 0.514504 26.8671 0.640429 27.9201C0.766355 28.973 0.640429 39.3916 0.640429 39.3916C0.640429 39.3916 0.788788 44.3388 0.777571 46.7001C0.766355 49.0615 0.0181793 53.9337 0.00043386 54.4712C-0.0173116 55.0087 0.514504 60.4096 0.640429 60.9471C0.766355 61.4846 5.48611 64 5.48611 64Z" id="New-shape-4" fill="none" fill-rule="evenodd" stroke="#CCCCCC" stroke-width="4" />
  </g>
</svg>