<?xml version="1.0" encoding="utf-8"?>
<svg width="68px" height="68px" viewBox="0 0 68 68" version="1.1" xmlns:xlink="http://www.w3.org/1999/xlink" xmlns="http://www.w3.org/2000/svg">
  <g id="Group" transform="translate(2 2)">
    <path d="M0 0L64 0L64 64L0 64L0 0Z" id="Rectangle" fill="#000000" fill-opacity="0" fill-rule="evenodd" stroke="none" />
    <path d="M61.0484 2.41679C61.0484 2.41679 59.9025 2.09494 59.7292 2.1026C59.5558 2.11026 57.4143 2.14899 57.4143 2.14899L53.7787 4.1308L48.5522 5.43288L44.6942 8.4826L39.6292 10.6953L34.4556 12.8845L29.0579 15.2545L23.8828 18.0431L20.0805 20.8718L14.9091 22.8401L11.3263 25.5351L7.47271 27.2556L4.99192 29.0834L3.06772 30.2684L2.35191 31.1388L2.1882 32.4542L2.79241 33.3479L4.66379 34.774L6.53813 35.6678L9.01446 36.4276L11.3271 37.4955L14.2454 38.1684L17.5491 38.5031L19.5314 38.0344L21.5136 36.9632L24.3241 33.9772L27.9559 30.9679L32.1459 28.8625L34.7859 25.5852L38.1425 22.7765L40.836 21.3906L41.9425 19.8943L44.0341 18.7528L45.7411 17.4138L46.8423 17.0791L47.448 17.7486L46.567 20.0249L43.5386 23.7072L40.5615 28.0557L36.0501 32.2098L29.4426 39.9091L28.3414 43.6583L29.0021 44.9973L32.9115 48.6798L37.4267 51.6991L39.7393 54.3706L41.7773 56.2653L44.3095 57.9189L46.4569 59.7266L47.9436 60.9986L49.7056 61.869L51.5226 62.3378L53.1194 62.0699L54.3859 60.53L55.3219 58.5215L56.2 56.3791L56.1479 53.6341L56.5333 51.09L56.7558 47.8328L57.5244 44.8634L57.9099 41.6498L58.6235 38.9718L58.6807 36.1598L59.0662 33.214L58.959 30.3588L59.782 27.8582L60.3862 24.5777L60.7731 20.4266L61.0492 17.0355L61.544 14.0663L61.3818 10.9195L62.0396 8.10761L62.4235 6.27651L62.0946 4.69312L61.8193 3.55496L61.0484 2.41679Z" id="New-shape" fill="none" fill-rule="evenodd" stroke="#CCCCCC" stroke-width="4" stroke-linecap="round" stroke-linejoin="round" />
  </g>
</svg>