<?xml version="1.0" encoding="utf-8"?>
<svg width="68px" height="68px" viewBox="0 0 68 68" version="1.1" xmlns:xlink="http://www.w3.org/1999/xlink" xmlns="http://www.w3.org/2000/svg">
  <g id="Group" transform="translate(2 2)">
    <path d="M3.38729 59.2508L3.38768 59.2494L4.58053 54.679L4.63638 50.6663L1.81665 44.613L0 35.6907L0.190855 27.1624L3.18875 19.4035L10.4494 8.33153L17.1769 5.0011L23.4275 1.95455L30.9025 0L36.8351 1.34202L42.9902 3.65799L48.0956 5.39412L53.2485 8.17405L55.9206 11.9906L61.2247 19.2467L62.7437 25.9845L64 35.5886L60.692 44.7844L53.7895 53.745L43.9445 61.087L34.9265 64L25.7178 63.1602L17.487 60.3731L13.1294 60.0881L4.66499 60.7984Q4.59156 60.8046 4.51791 60.8019Q4.44427 60.7992 4.37149 60.7876Q4.2987 60.7761 4.22784 60.7558Q4.15697 60.7356 4.08905 60.707Q4.02113 60.6784 3.95714 60.6419Q3.89315 60.6053 3.83402 60.5614Q3.77489 60.5174 3.72148 60.4666Q3.66806 60.4158 3.62115 60.359Q3.57423 60.3022 3.53448 60.2401Q3.49474 60.178 3.46275 60.1117Q3.43076 60.0453 3.40698 59.9755Q3.3832 59.9058 3.36799 59.8337Q3.35277 59.7615 3.34633 59.6881Q3.3399 59.6147 3.34234 59.5411Q3.34478 59.4674 3.35606 59.3946Q3.36734 59.3218 3.38729 59.2508Z" id="New-shape" fill="none" fill-rule="evenodd" stroke="#CCCCCC" stroke-width="4" />
    <path d="M25.8182 24.4973L24.7816 21.0438L23.0034 17.7588C23.0034 17.7588 21.669 16.1563 21.4696 16.1553C21.2702 16.1544 17.6726 17.2237 17.6726 17.2237C17.6726 17.2237 14.6011 20.1104 14.4198 20.6158C14.2386 21.1212 14.1582 23.9296 14.1582 23.9296C14.1582 23.9296 13.6443 24.9226 13.7884 25.9385C13.9325 26.9543 15.151 31.3312 15.151 31.3312L19.8474 36.9634L26.2496 42.6135L32.8552 46.9448L41.1095 49.6026L45.1379 48.4188L48.1453 45.5444L49.8 41.4698L48.4646 39.8694L44.4558 37.1592L39.9775 37.0056L37.7171 39.8273L36.8215 40.9223L34.6038 40.6696L31.3379 39.1823L27.8322 35.5796L23.4725 31.1094L22.7901 29.8038L24.1122 27.9929L25.8182 24.4973Z" id="New-shape-2" fill="none" fill-rule="evenodd" stroke="#CCCCCC" stroke-width="4" />
  </g>
</svg>