<?xml version="1.0" encoding="utf-8"?>
<svg width="129px" height="157.00002px" viewBox="0 0 129 157.00002" version="1.1" xmlns:xlink="http://www.w3.org/1999/xlink" xmlns="http://www.w3.org/2000/svg">
  <g id="Group" transform="translate(0.5 0.5)">
    <path d="M31.1917 75.9225L23.5839 78.5666L17.688 84.799L10.6508 98.0194L6.08618 107.84L4.37444 119.55L2.6627 130.692L1.14116 143.913L0 155.811" id="New-shape" fill="none" fill-rule="evenodd" stroke="#2B406D" stroke-width="1" />
    <path d="M31.5721 75.9225L30.8113 72.9007L33.474 69.1235L35.5661 64.4019L39.37 59.8693L45.4562 57.414L53.6345 56.6586" id="New-shape-2" fill="none" fill-rule="evenodd" stroke="#3F5077" stroke-width="1" />
    <path d="M31.5721 75.9225L34.6152 81.5884L37.8485 84.2325L43.3641 83.0993L46.4072 81.3995L47.7385 84.6102L53.8247 82.7216L66.7579 84.7991L69.0402 86.4988L70.1813 89.1429L74.1754 87.8208L80.2616 80.833L83.4949 77.2446L90.7222 74.0339L93.3849 72.523L96.9986 71.5787L99.0907 66.4794L98.7103 63.2688L96.2378 59.4916L93.3849 57.9807L89.581 57.0364L86.1575 55.9032" id="New-shape-3" fill="none" fill-rule="evenodd" stroke="#3F5077" stroke-width="1" />
    <path d="M97.3789 71.7676L97.7593 74.7894L104.606 77.6223L112.404 81.2107L115.637 83.477L120.582 92.3535L124.006 101.419L126.288 115.395L128 126.915L126.859 138.625L125.147 148.634L124.196 152.6L124.386 155.622" id="New-shape-4" fill="none" fill-rule="evenodd" stroke="#2B406D" stroke-width="1" />
    <path d="M27.7682 86.1211L27.3878 98.9637C27.3878 98.9637 27.6262 113.57 27.578 114.639C27.5298 115.708 27.7031 127.458 27.7682 128.615C27.8333 129.772 28.7714 144.6 28.9094 145.424C29.0473 146.247 30.8113 155.056 30.8113 155.056" id="New-shape-5" fill="none" fill-rule="evenodd" stroke="#2B406D" stroke-width="1" />
    <path d="M111.453 100.475L109.932 116.339C109.932 116.339 107.289 132.252 107.269 132.77C107.249 133.288 103.882 147.047 103.845 147.501C103.809 147.955 101.373 156 101.373 156" id="New-shape-6" fill="none" fill-rule="evenodd" stroke="#2B406D" stroke-width="1" />
    <path d="M55.9168 62.3245L52.4933 64.5908L52.4933 67.2349L49.6404 71.3898L53.2541 77.6223L59.5304 79.5109L62.5735 80.2663L65.997 80.2663C65.997 80.2663 68.6149 82.6372 68.6597 83.0993C68.7045 83.5614 70.942 86.4988 70.942 86.4988L75.3165 84.6102L79.6909 79.5109L83.3046 74.0339" id="New-shape-7" fill="none" fill-rule="evenodd" stroke="#4F5972" stroke-width="1" />
    <path d="M71.1323 83.477L76.4577 80.4552L80.8321 76.8668L84.636 68.7458L84.4458 61.569L84.8262 58.1695L86.9183 51.5593L89.581 50.8039L91.2927 48.3487L92.2437 44.5714L93.0045 42.3051L92.6241 38.5278L92.6241 38.5278L90.3418 37.9613" id="New-shape-8" fill="none" fill-rule="evenodd" stroke="#957868" stroke-width="1" />
    <path d="M71.1322 83.0993L69.2303 80.4552L66.3774 79.3221L61.2422 73.8451C61.2422 73.8451 57.0697 70.7389 56.8677 70.0678C56.6657 69.3968 55.7266 64.9685 55.7266 64.9685L55.156 59.3027C55.156 59.3027 53.4844 55.4129 53.2541 54.77C53.0237 54.127 52.6835 51.7482 52.6835 51.7482L50.9717 51.7482L49.26 45.8935L47.7385 43.0605L48.1189 40.0388L49.0698 38.7167" id="New-shape-9" fill="none" fill-rule="evenodd" stroke="#957868" stroke-width="1" />
    <path d="M55.5364 59.6804L60.4814 66.1017L65.4264 68.368C65.4264 68.368 70.3468 68.8744 70.942 68.9346C71.5372 68.9949 76.9065 67.6849 77.4086 67.2349C77.9107 66.7848 81.0223 62.5133 81.0223 62.5133L84.8261 58.1695" id="New-shape-10" fill="none" fill-rule="evenodd" stroke="#957868" stroke-width="1" />
    <path d="M75.3165 55.5254L73.0342 57.0363C73.0342 57.0363 68.7646 58.3704 68.2793 58.3583C67.7941 58.3463 65.2362 57.7918 65.2362 57.7918L62.7637 56.092L64.4569 54.7965L66.4771 54.1666L68.4695 54.7845L70.1175 53.9328L72.844 54.3923L75.3165 55.5254Z" id="New-shape-11" fill="none" fill-rule="evenodd" stroke="#704141" stroke-width="1" />
    <path d="M51.3522 44.5714C51.3522 44.5714 52.6835 36.2615 52.6835 36.2615L52.8737 31.54L54.2051 27.9516L56.107 29.0847L60.6716 26.6295C60.6716 26.6295 63.2774 22.6675 63.7147 22.4746C64.1521 22.2817 68.8982 20.6221 69.6107 20.3971C70.3233 20.1721 78.3596 20.7748 78.3596 20.7748C78.3596 20.7748 81.5319 24.7168 81.5929 25.3075C81.6539 25.8982 82.8308 29.6152 83.3046 30.2179C83.7784 30.8207 86.3636 32.8982 86.5379 33.6174C86.7122 34.3367 87.4562 38.1501 87.4889 38.9056C87.5216 39.661 87.6791 45.7046 87.6791 45.7046" id="New-shape-12" fill="none" fill-rule="evenodd" stroke="#D6B8B3" stroke-width="1" />
    <path d="M48.6895 37.7724L48.3091 35.8838L48.8797 30.0291L48.1189 25.1186L48.1189 21.7191L49.2018 17.6848L51.3522 15.109L53.8247 13.0315L55.7266 10.3874C55.7266 10.3874 57.5554 7.54242 57.8187 7.17675C58.0821 6.81109 60.558 0.626862 61.2422 0.755448C61.9264 0.884034 65.2363 3.21066 65.2363 3.21066L69.8009 0L67.5186 3.58838L70.3715 2.26634L70.9421 6.23244L73.2244 7.55448L78.1694 8.30993L81.4027 10.3874L83.1144 12.4649L86.3477 16.6199L88.4398 18.8862L89.9614 21.908L90.532 24.7409L91.1026 29.0847L91.1026 32.862L90.3418 36.6392" id="New-shape-13" fill="none" fill-rule="evenodd" stroke="#AB9388" stroke-width="1" />
    <path d="M65.4265 35.8838L60.2913 35.6949L56.6776 36.2615L54.5855 36.6349L53.6345 36.0726L56.2972 34.3729L62.003 33.9952L65.6167 34.3729L65.4265 35.8838Z" id="New-shape-14" fill="none" fill-rule="evenodd" stroke="#825F59" stroke-width="1" />
    <path d="M71.5127 35.8838C71.5127 35.8834 70.9421 33.6174 70.9421 33.6174L73.9852 33.0509L79.8812 33.4286L83.8752 34.5618L84.636 36.4504L84.636 36.4504L80.2615 35.1283L75.3165 35.3172C75.3165 35.3172 71.5127 35.8842 71.5127 35.8838Z" id="New-shape-15" fill="none" fill-rule="evenodd" stroke="#825F59" stroke-width="1" />
    <path d="M57.058 39.2833C57.058 39.2833 59.7292 39.2524 60.1011 39.2833C60.4729 39.3142 63.7147 38.9056 63.7147 38.9056L65.0461 39.4722L62.7638 37.017L58.9599 37.3947L57.058 39.2833Z" id="New-shape-16" fill="none" fill-rule="evenodd" stroke="#5B4342" stroke-width="1" />
    <path d="M73.9851 37.2058L73.4146 38.9056L74.9361 38.5278L78.74 39.2833L81.9732 39.0944L77.9792 37.017L73.9851 37.2058Z" id="New-shape-17" fill="none" fill-rule="evenodd" stroke="#5B4342" stroke-width="1" />
    <path d="M65.0461 46.0823L63.5245 48.7264L65.8068 50.0484L67.3284 50.2373L69.9911 50.2373L72.4636 49.6707L73.6048 47.7821L72.0832 45.138" id="New-shape-18" fill="none" fill-rule="evenodd" stroke="#8B695F" stroke-width="1" />
    <path d="M70.7519 89.5206L70.7519 94.0533L71.7028 95.753L69.0401 107.651L70.9421 108.029L72.6538 95.753L73.4146 94.0533L72.844 89.7094" id="New-shape-19" fill="none" fill-rule="evenodd" stroke="#3E4852" stroke-width="1" />
    <path d="M70.7518 108.785L70.7518 126.538L68.6597 144.857L67.8989 156" id="New-shape-20" fill="none" fill-rule="evenodd" stroke="#3E547D" stroke-width="1" />
  </g>
</svg>